G04 Generated by Ultiboard 14.2 *
%FSLAX24Y24*%
%MOIN*%

%ADD10C,0.0001*%
%ADD11C,0.0100*%
%ADD12C,0.0050*%
%ADD13C,0.0394*%
%ADD14C,0.0490*%
%ADD15R,0.0490X0.0490*%
%ADD16C,0.0591*%


G04 ColorRGB 00FF00 for the following layer *
%LNCopper Top*%
%LPD*%
G54D10*
G54D11*
X12200Y17800D02*
X14100Y15900D01*
X16487Y15900D01*
X16537Y15950D01*
X16537Y15450D01*
X12282Y19000D02*
X12282Y19282D01*
X22200Y9000D02*
X22800Y9000D01*
X23400Y9600D01*
X23400Y12513D01*
X24137Y13250D01*
X24137Y14637D01*
X24700Y15200D01*
X25900Y15200D01*
X26700Y16000D01*
X22800Y15082D02*
X22082Y15082D01*
X21450Y14450D01*
X18663Y14450D01*
X18900Y13000D02*
X20800Y13000D01*
X25818Y22800D02*
X26800Y21818D01*
X21429Y22800D02*
X25818Y22800D01*
X26800Y21818D02*
X26800Y21118D01*
X18850Y16650D02*
X17700Y17800D01*
X17318Y17800D01*
X13000Y10800D02*
X13000Y11200D01*
X9200Y15400D02*
X8800Y15400D01*
X13000Y11200D02*
X12400Y11800D01*
X10029Y11800D02*
X9200Y12629D01*
X12400Y11800D02*
X10029Y11800D01*
X9200Y12629D02*
X9200Y15400D01*
X22700Y20200D02*
X19200Y16700D01*
X18900Y16700D01*
X22700Y20200D02*
X22800Y20200D01*
X13100Y12300D02*
X10529Y12300D01*
X14000Y10800D02*
X14000Y11400D01*
X13100Y12300D01*
X9900Y15371D02*
X9871Y15400D01*
X10529Y12300D02*
X9900Y12929D01*
X9871Y15400D02*
X9800Y15400D01*
X9900Y12929D02*
X9900Y15371D01*
X18400Y16200D02*
X18400Y13500D01*
X18900Y13000D01*
X18900Y16700D02*
X18400Y16200D01*
X12282Y19282D02*
X12900Y19900D01*
X20400Y19700D02*
X20400Y19529D01*
X12900Y19900D02*
X20200Y19900D01*
X20400Y19700D01*
X20900Y22271D02*
X20900Y20200D01*
X20400Y19700D01*
X21429Y22800D02*
X20900Y22271D01*
X20400Y19529D02*
X20570Y19529D01*
X20800Y19299D01*
G54D12*
X3697Y7900D02*
X3697Y9430D01*
X3697Y7900D02*
X6178Y7900D01*
X28500Y7900D02*
X26020Y7900D01*
X28500Y7900D02*
X28500Y9430D01*
X28500Y23200D02*
X28500Y21670D01*
X28500Y23200D02*
X26020Y23200D01*
X3697Y23200D02*
X6178Y23200D01*
X3697Y23200D02*
X3697Y21670D01*
X1729Y7900D02*
X-2208Y7900D01*
X-240Y5931D02*
X-240Y9869D01*
X-1716Y7900D02*
G75*
D01*
G02X-1716Y7900I1476J0*
G01*
X30469Y7900D02*
X34406Y7900D01*
X32437Y5931D02*
X32437Y9869D01*
X30961Y7900D02*
G75*
D01*
G02X30961Y7900I1476J0*
G01*
X31945Y7900D02*
G75*
D01*
G02X31945Y7900I492J0*
G01*
X1729Y23200D02*
X-2208Y23200D01*
X-240Y21231D02*
X-240Y25169D01*
X-1716Y23200D02*
G75*
D01*
G02X-1716Y23200I1476J0*
G01*
X-1224Y23200D02*
G75*
D01*
G02X-1224Y23200I984J0*
G01*
X-732Y23200D02*
G75*
D01*
G02X-732Y23200I492J0*
G01*
G54D13*
X26900Y13300D03*
G54D14*
X6000Y10800D03*
X7000Y10800D03*
X8000Y10800D03*
X9000Y10800D03*
X10000Y10800D03*
X11000Y10800D03*
X12000Y10800D03*
X13000Y10800D03*
X14000Y10800D03*
X5000Y9800D03*
X6000Y9800D03*
X7000Y9800D03*
X8000Y9800D03*
X9000Y9800D03*
X10000Y9800D03*
X11000Y9800D03*
X12000Y9800D03*
X13000Y9800D03*
X14000Y9800D03*
X7800Y15400D03*
X7800Y18400D03*
X8800Y15400D03*
X10800Y15400D03*
X9800Y15400D03*
X10800Y18400D03*
X8800Y18400D03*
X9800Y18400D03*
G54D15*
X5000Y10800D03*
G54D16*
X17318Y17800D03*
X12200Y17800D03*
X16099Y21600D03*
X9800Y21600D03*
X6600Y19518D03*
X6600Y14400D03*
X24800Y15701D03*
X24800Y22000D03*
X22800Y15082D03*
X22800Y20200D03*
X26800Y21118D03*
X26800Y16000D03*
X22200Y14118D03*
X22200Y9000D03*
X20800Y19299D03*
X20800Y13000D03*
X12282Y19000D03*
X17400Y19000D03*

M02*
