M48
INCH,TZ
VER,1
FMAT,2
DETECT,ON
ATC,ON
T1C0.0236
T2C0.0350
T3C0.0354
%
T1
X26900Y13300
T2
X6000Y10800
X7000
X8000
X9000
X10000
X11000
X12000
X13000
X14000
X5000Y9800
X6000
X7000
X8000
X9000
X10000
X11000
X12000
X13000
X14000
X5000Y10800
X7800Y15400
Y18400
X8800Y15400
X10800
X9800
X10800Y18400
X8800
X9800
T3
X17318Y17800
X12200
X16099Y21600
X9800
X6600Y19518
Y14400
X24800Y15701
Y22000
X22800Y15082
Y20200
X26800Y21118
Y16000
X22200Y14118
Y9000
X20800Y19299
Y13000
X12282Y19000
X17400
M30
