G04 Generated by Ultiboard 14.2 *
%FSLAX24Y24*%
%MOIN*%

%ADD10C,0.0001*%
%ADD11C,0.0050*%


G04 ColorRGB FF14FF for the following layer *
%LNSilkscreen Bottom*%
%LPD*%
G54D10*
G54D11*
X3697Y7900D02*
X3697Y9430D01*
X3697Y7900D02*
X6178Y7900D01*
X28500Y7900D02*
X26020Y7900D01*
X28500Y7900D02*
X28500Y9430D01*
X28500Y23200D02*
X28500Y21670D01*
X28500Y23200D02*
X26020Y23200D01*
X3697Y23200D02*
X6178Y23200D01*
X3697Y23200D02*
X3697Y21670D01*
X1729Y7900D02*
X-2208Y7900D01*
X-240Y5931D02*
X-240Y9869D01*
X-1716Y7900D02*
G75*
D01*
G02X-1716Y7900I1476J0*
G01*
X30469Y7900D02*
X34406Y7900D01*
X32437Y5931D02*
X32437Y9869D01*
X30961Y7900D02*
G75*
D01*
G02X30961Y7900I1476J0*
G01*
X31945Y7900D02*
G75*
D01*
G02X31945Y7900I492J0*
G01*
X1729Y23200D02*
X-2208Y23200D01*
X-240Y21231D02*
X-240Y25169D01*
X-1716Y23200D02*
G75*
D01*
G02X-1716Y23200I1476J0*
G01*
X-1224Y23200D02*
G75*
D01*
G02X-1224Y23200I984J0*
G01*
X-732Y23200D02*
G75*
D01*
G02X-732Y23200I492J0*
G01*

M02*
